# xmcd
#
# Track frame offsets:
#	150
#	12528
#	26351
#	46081
#	62691
#	91268
#	102193
#	117117
#	151354
#	168235
#	189143
#	208814
#	229568
#	241214
#	258182
#	280967
#	299896
#	312493
#	320747
#	338391
#
# Disc length: 4605 seconds
#
# Revision: 1
# Processed by: cddbd v1.5.2PL0 Copyright (c) Steve Scherf et al.
# Submitted via: audiograbber 1.83.01
#
DISCID=0f11fb14
DTITLE=Charlie Haden Family, Friends  - Rambling Boy
DYEAR=1900
DGENRE=
TTITLE0=Single Girl
TTITLE1=Rambling Boy
TTITLE2=20 20 Vision
TTITLE3=Wildwood Flower
TTITLE4=Spiritual
TTITLE5=Oh Take Me Back
TTITLE6=You Win Again 
TTITLE7=The Fields of Athenry
TTITLE8=Ocean of DIamonds
TTITLE9=He's Gone Away
TTITLE10=A Voice from On Higfh
TTITLE11=Down by the Salley Gardens
TTITLE12=Road of Broken Hearts
TTITLE13=Is This America
TTITLE14=Tramp on the Street
TTITLE15=Old Joe
TTITLE16=7 Year Blues
TTITLE17=Old Haden Family Show
TTITLE18=Oh Shenandoah
TTITLE19=Unknown
EXTD=
EXTT0=
EXTT1=
EXTT2=
EXTT3=
EXTT4=
EXTT5=
EXTT6=
EXTT7=
EXTT8=
EXTT9=
EXTT10=
EXTT11=
EXTT12=
EXTT13=
EXTT14=
EXTT15=
EXTT16=
EXTT17=
EXTT18=
EXTT19=
PLAYORDER=
